<?xml version="1.0" standalone="no"?>
<!DOCTYPE svg PUBLIC "-//W3C//DTD SVG 20010904//EN"
 "http://www.w3.org/TR/2001/REC-SVG-20010904/DTD/svg10.dtd">
<svg version="1.0" xmlns="http://www.w3.org/2000/svg"
 width="967.000000pt" height="967.000000pt" viewBox="0 0 967.000000 967.000000"
 preserveAspectRatio="xMidYMid meet">
<metadata>
Created by potrace 1.11, written by Peter Selinger 2001-2013
</metadata>
<g transform="translate(0.000000,967.000000) scale(0.100000,-0.100000)"
fill="#000000" stroke="none">
<path d="M8982 8203 c-19 -7 -68 -17 -110 -21 -82 -7 -918 -8 -1268 -1 -232 4
-253 0 -274 -52 -24 -58 16 -109 89 -110 25 0 55 -2 66 -4 11 -2 36 -7 55 -10
19 -4 49 -16 67 -28 59 -40 58 -10 58 -1242 0 -616 -3 -1169 -8 -1230 -8 -129
-28 -218 -52 -245 -17 -19 -68 -31 -160 -39 -25 -2 -65 -48 -65 -75 0 -14 11
-38 24 -53 l24 -28 384 -1 c210 -1 455 -4 543 -8 259 -12 647 -10 687 3 43 14
72 44 92 96 15 41 18 55 37 185 5 41 12 86 15 100 2 14 6 69 9 122 4 90 3 99
-17 118 -30 28 -55 34 -87 20 -35 -14 -46 -36 -66 -125 -49 -219 -124 -257
-505 -256 -232 0 -306 13 -351 62 -50 54 -54 95 -54 669 -1 289 0 530 2 536 2
6 26 9 56 8 29 -1 143 -5 255 -8 202 -6 283 -16 333 -42 34 -17 58 -78 65
-163 9 -99 58 -140 123 -100 34 21 40 42 46 169 4 85 12 189 20 261 2 14 9 59
16 101 10 61 10 81 0 106 -26 63 -95 58 -158 -11 -46 -50 -76 -53 -538 -58
l-220 -3 0 535 0 534 200 0 c370 0 503 -24 542 -100 13 -25 27 -103 24 -131
-1 -12 5 -38 13 -57 11 -27 23 -38 48 -45 85 -23 112 27 123 233 4 87 13 168
22 210 24 117 23 143 -8 171 -24 22 -56 24 -97 7z"/>
<path d="M216 8171 c-40 -21 -57 -55 -44 -91 13 -40 37 -56 88 -63 82 -11 152
-53 255 -152 29 -28 128 -159 171 -225 143 -225 284 -452 284 -461 0 -5 3 -9
8 -9 4 0 12 -9 17 -20 6 -11 85 -145 177 -298 275 -457 271 -443 270 -932 0
-482 -13 -621 -59 -662 -17 -16 -38 -21 -128 -33 -62 -8 -74 -14 -89 -43 -25
-50 3 -107 56 -117 18 -3 168 -4 333 -3 165 1 377 1 472 -1 193 -3 223 5 242
60 8 24 7 37 -4 59 -16 31 -32 39 -91 44 -22 2 -70 7 -109 11 -171 17 -175 30
-176 685 -1 537 -9 502 207 885 220 390 530 890 614 990 122 145 221 212 328
221 31 3 68 13 81 23 30 21 43 64 31 96 -16 42 -45 49 -185 46 -177 -4 -356
-4 -501 0 -135 3 -168 -7 -180 -58 -10 -39 14 -75 69 -101 48 -23 50 -26 49
-91 -1 -45 -80 -199 -222 -431 -27 -44 -327 -573 -385 -678 -37 -68 -71 -120
-76 -115 -7 7 -168 281 -352 598 -72 126 -122 210 -137 235 -18 30 -153 266
-186 327 -19 34 -35 79 -37 100 -2 34 1 39 38 58 48 26 71 61 61 98 -10 43
-47 60 -129 59 -258 -2 -584 -2 -651 1 -57 2 -88 -1 -110 -12z"/>
<path d="M3635 8180 c-66 -14 -92 -44 -83 -100 5 -38 46 -58 131 -64 102 -8
197 -46 238 -95 36 -44 81 -136 143 -296 26 -66 51 -129 56 -140 5 -11 23 -56
41 -100 17 -44 37 -93 44 -110 7 -16 61 -151 119 -300 59 -148 111 -279 116
-290 5 -11 41 -101 80 -200 39 -99 75 -189 80 -200 5 -11 77 -191 160 -400 83
-209 155 -389 160 -400 5 -11 41 -99 79 -195 84 -212 95 -234 128 -260 56 -44
117 -34 153 25 31 51 263 567 355 790 49 121 185 446 200 480 23 51 366 877
387 930 11 28 26 64 33 80 8 17 34 82 60 145 25 63 50 124 55 135 5 11 21 49
36 85 38 95 101 212 130 243 39 42 92 64 183 75 70 9 88 14 103 34 38 50 0
127 -64 129 -18 1 -53 1 -78 1 -25 -1 -166 -1 -315 -1 -148 1 -304 1 -346 1
-97 0 -135 -18 -145 -67 -7 -42 14 -82 49 -89 12 -3 55 -7 96 -10 41 -4 80
-11 87 -17 25 -21 8 -92 -88 -359 -39 -107 -77 -213 -85 -235 -8 -22 -30 -83
-50 -135 -20 -52 -46 -122 -58 -155 -33 -88 -275 -717 -285 -740 -5 -11 -61
-150 -125 -310 -64 -159 -120 -294 -124 -298 -6 -6 -161 396 -346 896 -13 34
-107 285 -210 557 -284 752 -289 768 -247 785 9 3 50 8 91 12 42 3 86 11 98
19 29 18 39 68 19 99 -29 45 -50 49 -221 46 -256 -4 -447 -4 -635 1 -96 2
-188 1 -205 -2z"/>
<path d="M447 4632 c-32 -36 -67 -156 -123 -432 -22 -108 -12 -158 33 -179 44
-20 88 2 114 57 45 97 92 160 136 182 68 34 139 40 493 46 l335 5 -1 -1133
c-1 -1140 -4 -1305 -30 -1419 -2 -11 -6 -29 -9 -40 -13 -63 -42 -76 -193 -88
-25 -2 -52 -41 -52 -75 0 -76 52 -95 235 -85 61 3 243 3 405 1 394 -5 396 -5
428 10 33 16 56 61 48 94 -9 33 -46 55 -103 59 -188 15 -210 22 -237 74 -8 15
-18 52 -21 82 -4 30 -9 65 -12 79 -4 14 -8 571 -10 1238 -4 1006 -2 1211 9
1207 7 -2 137 -7 288 -10 151 -2 291 -7 310 -10 143 -22 231 -59 255 -106 9
-16 18 -55 21 -86 8 -73 22 -104 56 -121 35 -16 75 -6 95 25 19 28 20 38 28
338 6 218 6 221 -16 249 -21 26 -26 28 -73 23 -28 -4 -63 -9 -77 -11 -92 -19
-283 -23 -1084 -21 -495 2 -920 5 -945 8 -25 4 -67 9 -95 12 -27 4 -70 15 -94
26 -54 24 -93 24 -114 1z"/>
<path d="M4003 4635 c-24 -17 -55 -92 -72 -175 -13 -64 -19 -93 -25 -117 -28
-117 -47 -239 -42 -267 12 -61 80 -82 128 -39 11 10 34 47 51 83 56 115 108
155 227 175 19 3 188 8 375 11 l340 5 -1 -1123 c-2 -1260 -4 -1337 -39 -1464
-20 -70 -29 -75 -145 -89 -66 -8 -79 -14 -94 -43 -15 -30 -7 -72 18 -97 22
-22 88 -31 191 -24 50 3 236 3 415 1 179 -2 344 -3 367 -3 55 -1 94 19 111 54
29 60 -10 106 -95 113 -179 15 -197 19 -224 50 -17 20 -28 56 -36 114 -2 19
-7 49 -10 65 -3 17 -8 574 -10 1238 l-5 1209 289 -6 c317 -6 422 -18 509 -61
64 -31 82 -61 89 -142 7 -69 23 -104 55 -120 52 -24 109 11 115 72 2 13 6 133
10 267 6 242 6 244 -16 272 -21 27 -26 28 -78 23 -31 -3 -67 -8 -81 -11 -14
-3 -45 -9 -70 -13 -60 -10 -1796 -10 -1929 0 -115 8 -167 18 -223 42 -47 19
-68 19 -95 0z"/>
<path d="M9050 4614 c-25 -8 -72 -17 -105 -21 -63 -8 -944 -9 -1275 -2 -107 2
-208 0 -223 -4 -34 -9 -66 -59 -60 -91 9 -47 41 -64 132 -70 157 -12 196 -46
206 -183 6 -78 6 -2143 0 -2276 -6 -145 -25 -255 -50 -294 -14 -21 -31 -26
-140 -39 -56 -7 -58 -8 -78 -47 -20 -39 -8 -77 31 -100 25 -15 49 -18 119 -16
165 5 598 2 768 -4 94 -4 289 -8 435 -8 224 -1 271 1 304 15 71 30 94 81 120
266 2 19 8 58 11 85 4 28 8 61 11 74 8 55 6 158 -4 177 -6 11 -22 26 -36 34
-52 27 -110 -18 -121 -95 -10 -66 -45 -164 -71 -194 -29 -34 -93 -66 -154 -76
-25 -4 -54 -9 -65 -12 -32 -6 -376 -6 -415 1 -160 28 -189 55 -205 189 -9 73
-10 1065 -1 1074 6 7 152 6 351 -3 133 -5 159 -7 228 -19 86 -14 127 -76 127
-193 0 -43 5 -58 25 -77 24 -25 77 -34 101 -17 22 14 36 56 40 116 8 156 16
270 19 290 2 11 7 44 11 71 4 28 9 57 11 65 15 69 1 118 -40 135 -39 16 -76 2
-113 -43 -46 -55 -88 -60 -527 -62 -126 -1 -231 1 -234 4 -4 4 -8 1017 -4
1058 1 8 414 2 514 -7 84 -7 160 -28 196 -54 35 -25 49 -63 55 -149 7 -91 40
-134 95 -125 14 2 33 11 43 19 32 29 35 52 53 317 3 37 10 87 15 112 27 120
21 162 -26 184 -14 6 -26 11 -27 10 -1 0 -22 -7 -47 -15z"/>
</g>
</svg>
